# Blender v2.92.0 OBJ File: ''
# www.blender.org
mtllib mesa.mtl
o Cube_Cube.001
v -0.286157 0.438007 -4.423595
v -0.258578 0.014966 -4.430062
v -2.896558 0.246229 -3.010602
v -2.868979 -0.176812 -3.017069
v 4.128588 0.600801 3.754421
v 4.156167 0.177759 3.747954
v 1.518186 0.409023 5.167413
v 1.545765 -0.014018 5.160946
v -1.591357 0.342118 -3.717099
v -1.563779 -0.080923 -3.723566
v 2.823387 0.504912 4.460917
v 2.850966 0.081871 4.454450
v -2.216379 -0.128868 -3.370317
v 2.170786 0.456968 4.814165
v -2.243958 0.294174 -3.363851
v 2.198365 0.033926 4.807698
v -0.938757 0.390063 -4.070347
v 3.503566 0.129815 4.101202
v -0.911178 -0.032979 -4.076814
v 3.475987 0.552856 4.107669
v -0.689186 0.327626 1.078405
v -0.661607 -0.095415 1.071939
v 1.921215 0.519404 -0.334587
v 1.948794 0.096363 -0.341054
v 0.643594 0.000474 0.365442
v 0.616015 0.423515 0.371909
v -0.036586 0.375571 0.725157
v -0.009007 -0.047471 0.718690
v 1.296194 0.048418 0.012194
v 1.268615 0.471460 0.018661
v -1.792872 0.286928 -0.966098
v 0.845108 0.055664 -2.385558
v -0.487671 0.382817 -1.672595
v -1.140272 0.334872 -1.319347
v 0.164929 0.430761 -2.025843
v -1.765293 -0.136114 -0.972565
v 0.817529 0.478706 -2.379091
v -0.460092 -0.040225 -1.679062
v -1.112693 -0.088169 -1.325814
v 0.192508 0.007720 -2.032310
v -2.344715 0.266579 -1.988350
v 0.293265 0.035315 -3.407810
v -1.039514 0.362467 -2.694847
v -1.692115 0.314523 -2.341599
v -0.386914 0.410412 -3.048095
v -2.317136 -0.156463 -1.994817
v 0.265686 0.458356 -3.401343
v -1.011935 -0.060574 -2.701313
v -1.664536 -0.108518 -2.348065
v -0.359335 -0.012630 -3.054562
v 0.442079 -0.054717 3.116443
v 3.024902 0.560102 1.709917
v 1.747280 0.041172 2.409946
v 1.094679 -0.006772 2.763194
v 2.399880 0.089117 2.056698
v 0.414500 0.368325 3.122910
v 3.052480 0.137061 1.703450
v 1.719701 0.464214 2.416413
v 1.067100 0.416269 2.769661
v 2.372301 0.512158 2.063165
v 0.993922 -0.034368 4.138694
v 3.576745 0.580452 2.732169
v 2.299123 0.061521 3.432198
v 1.646522 0.013577 3.785446
v 2.951723 0.109466 3.078950
v 0.966343 0.388674 4.145161
v 3.604323 0.157410 2.725702
v 2.271544 0.484563 3.438665
v 1.618943 0.436618 3.791913
v 2.924144 0.532507 3.085417
v 1.269843 -0.024193 4.649820
v 3.852666 0.590626 3.243295
v 2.575044 0.071696 3.943324
v 1.922444 0.023751 4.296572
v 3.227645 0.119640 3.590076
v 1.242264 0.398849 4.656287
v 3.880245 0.167585 3.236828
v 2.547465 0.494737 3.949791
v 1.894865 0.446793 4.303039
v 3.200066 0.542682 3.596543
v 1.407804 -0.019106 4.905384
v 3.990627 0.595714 3.498857
v 2.713005 0.076783 4.198887
v 2.060405 0.028839 4.552135
v 3.365605 0.124728 3.845639
v 1.380225 0.403936 4.911850
v 4.018206 0.172672 3.492391
v 2.685426 0.499825 4.205354
v 2.032825 0.451880 4.558602
v 3.338026 0.547769 3.852106
v -2.025494 -3.056901 -3.415077
v -2.678094 -3.104845 -3.061829
v -2.126251 -3.084496 -2.039577
v -1.473650 -3.036552 -2.392825
v 0.473655 -2.731731 -3.450108
v -0.078188 -2.752080 -4.472360
v -0.730788 -2.800025 -4.119112
v -0.178945 -2.779675 -3.096860
v 1.559226 -2.341799 4.869878
v 1.697187 -2.336712 5.125441
v 2.349787 -2.288767 4.772192
v 2.211826 -2.293855 4.516630
v 1.421265 -2.346886 4.614315
v 2.073865 -2.298942 4.261066
v 1.591475 -2.836479 4.862316
v 1.729436 -2.831392 5.117878
v 2.382036 -2.783447 4.764630
v 2.244076 -2.788534 4.509068
v 1.453514 -2.841566 4.606752
v 2.106115 -2.793622 4.253504
v 3.682475 -2.614503 4.059251
v 4.335075 -2.566559 3.706003
v 3.544514 -2.619591 3.803688
v 4.197114 -2.571646 3.450439
v 4.059154 -2.576734 3.194877
v 3.406553 -2.624678 3.548125
vt 0.375000 0.187500
vt 0.625000 0.187500
vt 0.625000 0.250000
vt 0.375000 0.250000
vt 0.375000 0.492188
vt 0.625000 0.492188
vt 0.625000 0.500000
vt 0.375000 0.500000
vt 0.375000 0.687500
vt 0.625000 0.687500
vt 0.625000 0.750000
vt 0.375000 0.750000
vt 0.375000 0.968750
vt 0.625000 0.968750
vt 0.625000 1.000000
vt 0.375000 1.000000
vt 0.367188 0.687500
vt 0.367188 0.750000
vt 0.625000 0.968750
vt 0.625000 1.000000
vt 0.843750 0.562500
vt 0.875000 0.562500
vt 0.875000 0.625000
vt 0.843750 0.625000
vt 0.367188 0.562500
vt 0.375000 0.562500
vt 0.375000 0.625000
vt 0.367188 0.625000
vt 0.625000 0.562500
vt 0.625000 0.625000
vt 0.375000 0.062500
vt 0.625000 0.062500
vt 0.625000 0.125000
vt 0.375000 0.125000
vt 0.367188 0.500000
vt 0.843750 0.562500
vt 0.875000 0.562500
vt 0.375000 0.000000
vt 0.625000 0.000000
vt 0.875000 0.687500
vt 0.843750 0.687500
vt 0.187500 0.625000
vt 0.250000 0.625000
vt 0.250000 0.687500
vt 0.187500 0.687500
vt 0.687500 0.625000
vt 0.750000 0.625000
vt 0.750000 0.687500
vt 0.687500 0.687500
vt 0.687500 0.500000
vt 0.750000 0.500000
vt 0.750000 0.562500
vt 0.687500 0.562500
vt 0.187500 0.500000
vt 0.250000 0.500000
vt 0.250000 0.562500
vt 0.187500 0.562500
vt 0.750000 0.750000
vt 0.687500 0.750000
vt 0.250000 0.750000
vt 0.187500 0.750000
vt 0.375000 0.812500
vt 0.625000 0.812500
vt 0.625000 0.875000
vt 0.375000 0.875000
vt 0.375000 0.312500
vt 0.625000 0.312500
vt 0.625000 0.375000
vt 0.375000 0.375000
vt 0.375000 0.281250
vt 0.625000 0.281250
vt 0.156250 0.687500
vt 0.156250 0.750000
vt 0.156250 0.562500
vt 0.156250 0.625000
vt 0.156250 0.500000
vt 0.812500 0.625000
vt 0.812500 0.687500
vt 0.812500 0.500000
vt 0.812500 0.562500
vt 0.812500 0.750000
vt 0.625000 0.937500
vt 0.375000 0.937500
vt 0.125000 0.625000
vt 0.125000 0.687500
vt 0.125000 0.500000
vt 0.125000 0.562500
vt 0.125000 0.750000
vt 0.843750 0.500000
vt 0.843750 0.750000
vt 0.375000 0.781250
vt 0.625000 0.781250
vt 0.656250 0.687500
vt 0.656250 0.750000
vt 0.656250 0.562500
vt 0.656250 0.625000
vt 0.656250 0.500000
vt 0.312500 0.625000
vt 0.312500 0.687500
vt 0.312500 0.500000
vt 0.312500 0.562500
vt 0.312500 0.750000
vt 0.625000 0.437500
vt 0.375000 0.437500
vt 0.640625 0.625000
vt 0.640625 0.687500
vt 0.640625 0.500000
vt 0.640625 0.562500
vt 0.640625 0.750000
vt 0.375000 0.765625
vt 0.625000 0.765625
vt 0.343750 0.625000
vt 0.343750 0.687500
vt 0.343750 0.500000
vt 0.343750 0.562500
vt 0.343750 0.750000
vt 0.625000 0.468750
vt 0.375000 0.468750
vt 0.375000 0.757812
vt 0.625000 0.757812
vt 0.625000 0.757812
vt 0.625000 0.765625
vt 0.632812 0.562500
vt 0.632812 0.625000
vt 0.625000 0.492188
vt 0.625000 0.500000
vt 0.632812 0.687500
vt 0.359375 0.625000
vt 0.359375 0.687500
vt 0.359375 0.500000
vt 0.359375 0.562500
vt 0.359375 0.750000
vt 0.625000 0.484375
vt 0.375000 0.484375
vt 0.632812 0.562500
vt 0.640625 0.562500
vt 0.632812 0.687500
vt 0.625000 0.687500
vt 0.843750 0.500000
vt 0.875000 0.500000
vt 0.625000 0.250000
vt 0.625000 0.281250
vt 0.625000 0.187500
vt 0.843750 0.687500
vt 0.875000 0.687500
vt 0.875000 0.750000
vt 0.843750 0.750000
vt 0.625000 0.000000
vt 0.625000 0.062500
vt 0.625000 0.562500
vt 0.625000 0.562500
vt 0.632812 0.562500
vt 0.625000 0.484375
vt 0.625000 0.484375
vt 0.625000 0.492188
vt 0.640625 0.500000
vt 0.632812 0.500000
vt 0.640625 0.500000
vt 0.640625 0.562500
vt 0.625000 0.500000
vt 0.640625 0.687500
vt 0.640625 0.750000
vt 0.632812 0.750000
vt 0.625000 0.750000
vn -0.4750 -0.0175 -0.8798
vn -0.8776 -0.0645 0.4750
vn 0.4750 0.0175 0.8798
vn 0.8776 0.0645 -0.4750
vn -0.0650 0.9978 0.0153
vn 0.0650 -0.9978 -0.0153
usemtl Material.001
s off
f 15/1/1 13/2/1 4/3/1 3/4/1
f 86/5/2 81/6/2 8/7/2 7/8/2
f 20/9/3 18/10/3 6/11/3 5/12/3
f 47/13/4 42/14/4 2/15/4 1/16/4
f 90/17/5 20/9/5 5/12/5 82/18/5
f 2/15/4 42/14/4 95/19/4 96/20/4
f 49/21/6 13/22/6 10/23/6 48/24/6
f 89/25/5 14/26/5 11/27/5 88/28/5
f 14/26/3 16/29/3 12/30/3 11/27/3
f 17/31/1 19/32/1 10/33/1 9/34/1
f 7/8/3 8/7/3 16/29/3 14/26/3
f 86/35/5 7/8/5 14/26/5 89/25/5
f 13/22/4 49/21/4 94/36/4 91/37/4
f 9/34/1 10/33/1 13/2/1 15/1/1
f 1/38/1 2/39/1 19/32/1 17/31/1
f 48/24/6 10/23/6 19/40/6 50/41/6
f 88/28/5 11/27/5 20/9/5 90/17/5
f 11/27/3 12/30/3 18/10/3 20/9/3
f 33/42/5 26/43/5 30/44/5 35/45/5
f 53/46/6 25/47/6 29/48/6 55/49/6
f 51/50/6 22/51/6 28/52/6 54/53/6
f 31/54/5 21/55/5 27/56/5 34/57/5
f 34/57/5 27/56/5 26/43/5 33/42/5
f 54/53/6 28/52/6 25/47/6 53/46/6
f 55/49/6 29/48/6 24/58/6 57/59/6
f 35/45/5 30/44/5 23/60/5 37/61/5
f 52/62/4 57/63/4 24/64/4 23/65/4
f 31/66/2 36/67/2 22/68/2 21/69/2
f 41/70/2 46/71/2 36/67/2 31/66/2
f 45/72/5 35/45/5 37/61/5 47/73/5
f 44/74/5 34/57/5 33/42/5 43/75/5
f 41/76/5 31/54/5 34/57/5 44/74/5
f 43/75/5 33/42/5 35/45/5 45/72/5
f 25/47/6 38/77/6 40/78/6 29/48/6
f 22/51/6 36/79/6 39/80/6 28/52/6
f 28/52/6 39/80/6 38/77/6 25/47/6
f 29/48/6 40/78/6 32/81/6 24/58/6
f 23/65/4 24/64/4 32/82/4 37/83/4
f 9/84/5 43/75/5 45/72/5 17/85/5
f 3/86/5 41/76/5 44/74/5 15/87/5
f 15/87/5 44/74/5 43/75/5 9/84/5
f 17/85/5 45/72/5 47/73/5 1/88/5
f 3/4/2 4/3/2 46/71/2 41/70/2
f 38/77/6 48/24/6 50/41/6 40/78/6
f 36/79/6 46/89/6 49/21/6 39/80/6
f 39/80/6 49/21/6 48/24/6 38/77/6
f 40/78/6 50/41/6 42/90/6 32/81/6
f 37/83/4 32/82/4 42/14/4 47/13/4
f 62/91/4 67/92/4 57/63/4 52/62/4
f 65/93/6 55/49/6 57/59/6 67/94/6
f 64/95/6 54/53/6 53/46/6 63/96/6
f 61/97/6 51/50/6 54/53/6 64/95/6
f 63/96/6 53/46/6 55/49/6 65/93/6
f 26/43/5 58/98/5 60/99/5 30/44/5
f 21/55/5 56/100/5 59/101/5 27/56/5
f 27/56/5 59/101/5 58/98/5 26/43/5
f 30/44/5 60/99/5 52/102/5 23/60/5
f 21/69/2 22/68/2 51/103/2 56/104/2
f 73/105/6 63/96/6 65/93/6 75/106/6
f 71/107/6 61/97/6 64/95/6 74/108/6
f 74/108/6 64/95/6 63/96/6 73/105/6
f 75/106/6 65/93/6 67/94/6 77/109/6
f 72/110/4 77/111/4 67/92/4 62/91/4
f 58/98/5 68/112/5 70/113/5 60/99/5
f 56/100/5 66/114/5 69/115/5 59/101/5
f 59/101/5 69/115/5 68/112/5 58/98/5
f 60/99/5 70/113/5 62/116/5 52/102/5
f 56/104/2 51/103/2 61/117/2 66/118/2
f 82/119/4 87/120/4 77/111/4 72/110/4
f 77/111/4 87/120/4 114/121/4 115/122/4
f 84/123/6 74/108/6 73/105/6 83/124/6
f 8/7/2 81/6/2 99/125/2 100/126/2
f 83/124/6 73/105/6 75/106/6 85/127/6
f 68/112/5 78/128/5 80/129/5 70/113/5
f 66/114/5 76/130/5 79/131/5 69/115/5
f 69/115/5 79/131/5 78/128/5 68/112/5
f 70/113/5 80/129/5 72/132/5 62/116/5
f 66/118/2 61/117/2 71/133/2 76/134/2
f 12/30/6 83/124/6 85/127/6 18/10/6
f 74/108/4 84/123/4 102/135/4 104/136/4
f 16/29/6 84/123/6 83/124/6 12/30/6
f 18/10/2 85/127/2 113/137/2 111/138/2
f 5/12/4 6/11/4 87/120/4 82/119/4
f 78/128/5 88/28/5 90/17/5 80/129/5
f 76/130/5 86/35/5 89/25/5 79/131/5
f 79/131/5 89/25/5 88/28/5 78/128/5
f 80/129/5 90/17/5 82/18/5 72/132/5
f 76/134/2 71/133/2 81/6/2 86/5/2
f 93/139/6 92/140/6 91/37/6 94/36/6
f 46/71/2 4/3/2 92/141/2 93/142/2
f 49/21/3 46/89/3 93/139/3 94/36/3
f 4/3/1 13/2/1 91/143/1 92/141/1
f 98/144/6 97/145/6 96/146/6 95/147/6
f 19/32/1 2/39/1 96/148/1 97/149/1
f 50/41/2 19/40/2 97/145/2 98/144/2
f 42/90/3 50/41/3 98/144/3 95/147/3
f 102/135/4 101/150/4 107/151/4 108/152/4
f 99/125/2 103/153/2 109/154/2 105/155/2
f 16/29/3 8/7/3 100/126/3 101/150/3
f 71/107/1 74/108/1 104/136/1 103/156/1
f 84/123/4 16/29/4 101/150/4 102/135/4
f 81/6/2 71/133/2 103/153/2 99/125/2
f 105/157/6 109/158/6 110/159/6 108/152/6
f 106/160/6 105/157/6 108/152/6 107/151/6
f 100/126/2 99/125/2 105/155/2 106/160/2
f 104/136/4 102/135/4 108/152/4 110/159/4
f 103/156/1 104/136/1 110/159/1 109/158/1
f 101/150/3 100/126/3 106/160/3 107/151/3
f 113/137/6 116/161/6 115/162/6 114/163/6
f 111/138/6 113/137/6 114/163/6 112/164/6
f 87/120/4 6/11/4 112/164/4 114/121/4
f 6/11/3 18/10/3 111/138/3 112/164/3
f 85/127/2 75/106/2 116/161/2 113/137/2
f 75/106/1 77/109/1 115/162/1 116/161/1
