# Blender v2.92.0 OBJ File: ''
# www.blender.org
mtllib pieza2.mtl
o Pieza2
v 0.000000 0.000000 0.000000
v 0.000000 20.000000 -40.000000
v 0.000000 0.000000 -40.000000
v 0.000000 20.000000 0.000000
v 20.000000 10.000000 -40.000000
v 40.000000 10.000000 0.000000
v 40.000000 10.000000 -40.000000
v 20.000000 10.000000 0.000000
v 40.000000 0.000000 -40.000000
v 40.000000 0.000000 0.000000
v 20.000000 20.000000 -40.000000
v 20.000000 20.000000 0.000000
vn -1.0000 0.0000 0.0000
vn 0.0000 1.0000 0.0000
vn 1.0000 0.0000 0.0000
vn 0.0000 0.0000 -1.0000
vn 0.0000 -1.0000 0.0000
vn 0.0000 0.0000 1.0000
usemtl Material.001
s off
f 1//1 2//1 3//1
f 2//1 1//1 4//1
f 5//2 6//2 7//2
f 6//2 5//2 8//2
f 6//3 9//3 7//3
f 9//3 6//3 10//3
f 7//4 9//4 5//4
f 5//4 2//4 11//4
f 3//4 5//4 9//4
f 5//4 3//4 2//4
f 1//5 9//5 10//5
f 9//5 1//5 3//5
f 4//6 8//6 12//6
f 1//6 8//6 4//6
f 10//6 8//6 1//6
f 8//6 10//6 6//6
f 2//2 12//2 11//2
f 12//2 2//2 4//2
f 12//3 5//3 11//3
f 5//3 12//3 8//3
