# Blender v2.92.0 OBJ File: ''
# www.blender.org
mtllib pieza3.mtl
o Pieza3_Pieza3.001
v 0.000000 0.000000 -40.000000
v 0.000000 20.000000 -20.000000
v 0.000000 20.000000 -40.000000
v 0.000000 0.000000 0.000000
v 0.000000 30.000000 0.000000
v 0.000000 30.000000 -20.000000
v 20.000000 10.000000 -40.000000
v 40.000000 10.000000 0.000000
v 40.000000 10.000000 -40.000000
v 20.000000 10.000000 0.000000
v 40.000000 0.000000 -40.000000
v 40.000000 0.000000 0.000000
v 20.000000 20.000000 -40.000000
v 20.000000 30.000000 0.000000
v 20.000000 20.000000 -20.000000
v 20.000000 30.000000 -20.000000
vn -1.0000 0.0000 0.0000
vn 0.0000 1.0000 0.0000
vn 1.0000 0.0000 0.0000
vn 0.0000 0.0000 -1.0000
vn 0.0000 -1.0000 0.0000
vn 0.0000 0.0000 1.0000
usemtl None
s off
f 1//1 2//1 3//1
f 4//1 2//1 1//1
f 5//1 2//1 4//1
f 2//1 5//1 6//1
f 7//2 8//2 9//2
f 8//2 7//2 10//2
f 8//3 11//3 9//3
f 11//3 8//3 12//3
f 9//4 11//4 7//4
f 7//4 3//4 13//4
f 1//4 7//4 11//4
f 7//4 1//4 3//4
f 4//5 11//5 12//5
f 11//5 4//5 1//5
f 5//6 10//6 14//6
f 4//6 10//6 5//6
f 12//6 10//6 4//6
f 10//6 12//6 8//6
f 3//2 15//2 13//2
f 15//2 3//2 2//2
f 16//3 14//3 15//3
f 15//3 7//3 13//3
f 10//3 15//3 14//3
f 15//3 10//3 7//3
f 6//2 14//2 16//2
f 14//2 6//2 5//2
f 15//4 6//4 16//4
f 6//4 15//4 2//4
